<svg width="30" height="18" viewBox="0 0 30 18" fill="none" xmlns="http://www.w3.org/2000/svg">
<path d="M14.9998 5.5075C16.5911 5.5075 18.1172 6.13964 19.2424 7.26486C20.3676 8.39008 20.9998 9.9162 20.9998 11.5075C20.9998 13.0988 20.3676 14.6249 19.2424 15.7501C18.1172 16.8754 16.5911 17.5075 14.9998 17.5075C13.4085 17.5075 11.8823 16.8754 10.7571 15.7501C9.6319 14.6249 8.99976 13.0988 8.99976 11.5075C8.99976 9.9162 9.6319 8.39008 10.7571 7.26486C11.8823 6.13964 13.4085 5.5075 14.9998 5.5075ZM14.9998 0.25C21.9193 0.25 27.8938 4.975 29.5513 11.596C29.6239 11.8854 29.5785 12.1918 29.4252 12.4478C29.2719 12.7038 29.0232 12.8884 28.7338 12.961C28.4443 13.0336 28.1379 12.9883 27.8819 12.835C27.626 12.6816 27.4414 12.4329 27.3688 12.1435C26.6754 9.38771 25.0816 6.9424 22.8402 5.19556C20.5989 3.44873 17.8383 2.50042 14.9967 2.50111C12.155 2.5018 9.39493 3.45144 7.15442 5.19937C4.91392 6.94729 3.32129 9.39338 2.62926 12.1495C2.55155 12.4329 2.36603 12.6746 2.11239 12.823C1.85874 12.9714 1.55711 13.0147 1.27199 12.9435C0.986873 12.8724 0.740904 12.6925 0.586687 12.4424C0.43247 12.1922 0.382248 11.8917 0.44676 11.605C1.26017 8.36119 3.13395 5.48209 5.77057 3.42486C8.40719 1.36763 11.6555 0.250202 14.9998 0.25Z" fill="#929292"/>
</svg>
