<svg width="44" height="44" viewBox="0 0 44 44" fill="none" xmlns="http://www.w3.org/2000/svg">
<path fill-rule="evenodd" clip-rule="evenodd" d="M2.99992 -0.000396H14.9999C16.6543 -0.000396 17.9999 1.34548 17.9999 2.99957V40.9997C17.9999 42.6539 16.6543 43.9997 14.9999 43.9997H2.99992C1.3457 43.9997 -8.8e-05 42.6539 -8.8e-05 40.9997V28.9998C-8.8e-05 28.4469 0.4477 27.9998 0.9999 27.9998C1.5521 27.9998 1.99998 28.4469 1.99998 28.9998V40.9997C1.99998 41.5517 2.44869 41.9998 2.99992 41.9998H14.9999C15.5512 41.9998 15.9999 41.5517 15.9999 40.9997V2.99957C15.9999 2.44759 15.5512 1.99949 14.9999 1.99949H2.99992C2.44869 1.99949 1.99998 2.44759 1.99998 2.99957V5.99953H12.9999C13.5521 5.99953 14 6.4467 14 6.99996C14 7.55229 13.5521 7.99973 12.9999 7.99973H1.99998V11.9995H12.9999C13.5521 11.9995 14 12.4469 14 12.9996C14 13.5522 13.5521 13.9997 12.9999 13.9997H1.99998V17.9997H12.9999C13.5521 17.9997 14 18.4469 14 18.9999C14 19.5525 13.5521 19.9996 12.9999 19.9996H1.99998V23.9997H12.9999C13.5521 23.9997 14 24.4468 14 24.9995C14 25.5521 13.5521 25.9996 12.9999 25.9996H0.9999C0.4477 25.9996 -8.8e-05 25.5521 -8.8e-05 24.9995V2.99957C-8.8e-05 1.34548 1.3457 -0.000396 2.99992 -0.000396ZM21.707 12.2076L27.6133 6.30247C28.0028 5.91202 28.6825 5.91202 29.0731 6.30247L37.6972 14.9267C38.1 15.3289 38.1 15.9851 37.6977 16.3875L35.2495 18.8352L27.7069 11.2926C27.3163 10.9018 26.6835 10.9018 26.293 11.2926C25.9022 11.683 25.9022 12.3163 26.293 12.7068L33.8355 20.2493L31.7919 22.2926C31.4013 22.6831 31.4013 23.316 31.7919 23.7068C31.9872 23.9018 32.2432 23.9997 32.4989 23.9997C32.7548 23.9997 33.0106 23.9018 33.2061 23.7068L39.1123 17.8013C40.2938 16.6186 40.2938 14.6949 39.1118 13.5122L30.4872 4.88831C29.3417 3.74211 27.3432 3.74211 26.1987 4.88831L20.293 10.7938C19.9022 11.1842 19.9022 11.8169 20.293 12.2076C20.6835 12.5981 21.3163 12.5981 21.707 12.2076ZM11.9999 34.9995C11.9999 33.3454 10.6543 31.9998 8.99994 31.9998C7.34567 31.9998 5.99993 33.3454 5.99993 34.9995C5.99993 36.6539 7.34567 37.9995 8.99994 37.9995C10.6543 37.9995 11.9999 36.6539 11.9999 34.9995ZM7.99995 34.9995C7.99995 34.4478 8.44866 33.9997 8.99994 33.9997C9.55117 33.9997 9.99988 34.4478 9.99988 34.9995C9.99988 35.5515 9.55117 35.9996 8.99994 35.9996C8.44866 35.9996 7.99995 35.5515 7.99995 34.9995ZM20.9999 25.9996H40.9999C42.6542 25.9996 43.9999 27.3454 43.9999 28.9998V40.9997C43.9999 42.6539 42.6542 43.9997 40.9999 43.9997H20.9999C20.4477 43.9997 19.9999 43.5523 19.9999 42.9996C19.9999 42.447 20.4477 41.9998 20.9999 41.9998H23.9999V30.9997C23.9999 30.4471 24.4478 29.9996 25 29.9996C25.5522 29.9996 26 30.4471 26 30.9997V41.9998H29.9999V30.9997C29.9999 30.4471 30.4478 29.9996 31 29.9996C31.5522 29.9996 31.9999 30.4471 31.9999 30.9997V41.9998H35.9999V30.9997C35.9999 30.4471 36.4478 29.9996 37 29.9996C37.5522 29.9996 37.9999 30.4471 37.9999 30.9997V41.9998H40.9999C41.5512 41.9998 41.9999 41.5517 41.9999 40.9997V28.9998C41.9999 28.4478 41.5512 27.9998 40.9999 27.9998H20.9999C20.4477 27.9998 19.9999 27.5526 19.9999 26.9993C19.9999 26.447 20.4477 25.9996 20.9999 25.9996ZM21.793 15.7927C21.4022 16.1835 21.4022 16.8161 21.793 17.2066L28.2929 23.7068C28.4882 23.9018 28.7441 23.9997 29 23.9997C29.2558 23.9997 29.5117 23.9018 29.707 23.7068C30.0976 23.316 30.0976 22.6831 29.707 22.2926L23.207 15.7927C22.8163 15.4019 22.1835 15.4019 21.793 15.7927Z" fill="#102D6A"/>
</svg>
