<svg width="53" height="38" viewBox="0 0 53 38" fill="none" xmlns="http://www.w3.org/2000/svg">
<path fill-rule="evenodd" clip-rule="evenodd" d="M24.7802 36.6822C24.9181 36.8248 25.1073 36.9051 25.3048 36.9051C25.5026 36.9051 25.6918 36.8248 25.8294 36.6822L29.9455 32.4243C30.2267 32.1339 30.2195 31.6692 29.9298 31.3876C29.6404 31.1055 29.1772 31.1124 28.8963 31.4034L26.8657 33.5037L27.7704 31.2371C27.9207 30.8611 27.7383 30.4345 27.3636 30.2843C26.9896 30.1334 26.5636 30.3167 26.4137 30.6924L25.3048 33.4697L16.9286 12.4866H33.6811L32.9128 14.4121C32.7625 14.7885 32.9449 15.2151 33.3196 15.3656C33.4084 15.4012 33.5005 15.4185 33.5908 15.4185C33.881 15.4185 34.1554 15.2441 34.2695 14.9572L35.4394 12.0259C35.5133 11.8417 35.5089 11.6348 35.428 11.4534L31.6195 2.92744C31.4542 2.55774 31.0211 2.39244 30.6535 2.55774C30.2851 2.72338 30.1207 3.15731 30.2856 3.52731L33.6325 11.0202H16.9773L20.3242 3.52731C20.4891 3.15731 20.3244 2.72338 19.9562 2.55774C19.5879 2.39244 19.1554 2.55774 18.9903 2.92744L15.1819 11.4534C15.1008 11.6348 15.0965 11.8417 15.1704 12.0259L23.7439 33.5037L3.42689 12.4866H12.8491C13.2527 12.4866 13.5799 12.1585 13.5799 11.7535C13.5799 11.3486 13.2527 11.0202 12.8491 11.0202H3.47432L13.0632 1.47391H37.5466L47.1361 11.0202H37.7364C37.3328 11.0202 37.0056 11.3486 37.0056 11.7535C37.0056 12.1585 37.3328 12.4866 37.7364 12.4866H47.1836L45.3725 14.3599C45.0913 14.6509 45.0985 15.1153 45.3882 15.3971C45.678 15.6786 46.1402 15.6723 46.4217 15.3814L49.4351 12.2643C49.7137 11.9755 49.7094 11.5158 49.4251 11.233L38.3624 0.220324C38.2257 0.084284 38.0405 0.007448 37.8478 0.007448H12.7619C12.5692 0.007448 12.384 0.084284 12.2474 0.220324L1.18548 11.233C0.90094 11.5158 0.896728 11.9755 1.17545 12.2643L24.7802 36.6822ZM52.7688 23.3648L46.7065 17.3299C46.5697 17.1936 46.3846 17.1171 46.1918 17.1171H32.445C32.2522 17.1171 32.0671 17.1936 31.9301 17.3299L25.8684 23.3648C25.5842 23.6479 25.58 24.1077 25.8588 24.3961L38.7942 37.7768C38.9319 37.9194 39.1211 37.9997 39.3187 37.9997C39.5165 37.9997 39.7056 37.9194 39.8433 37.7768L52.7788 24.3961C53.0575 24.1074 53.0532 23.6476 52.7688 23.3648ZM41.1038 34.3668L44.9949 24.6187H48.6214C49.0251 24.6187 49.3522 24.2903 49.3522 23.8857C49.3522 23.4804 49.0251 23.1523 48.6214 23.1523H44.9739L43.4345 19.7061C43.2691 19.3361 42.8366 19.1708 42.4688 19.3368C42.1005 19.5024 41.9356 19.936 42.1005 20.3057L43.7068 23.9017L39.3187 34.894L35.2163 24.6187H41.4214C41.8249 24.6187 42.1522 24.2903 42.1522 23.8857C42.1522 23.4804 41.8249 23.1523 41.4214 23.1523H35.2649L36.5263 20.3274C36.6912 19.958 36.5267 19.5241 36.1583 19.3582C35.7898 19.1925 35.3576 19.3575 35.1924 19.7275L33.4695 23.5856C33.3885 23.7666 33.3841 23.9735 33.458 24.158L37.5334 34.3659L28.1102 24.6187H31.3951C31.7987 24.6187 32.126 24.2903 32.126 23.8857C32.126 23.4804 31.7987 23.1523 31.3951 23.1523H28.1576L32.7462 18.5835H45.8907L51.2264 23.8954L41.1038 34.3668Z" fill="#102D6A"/>
</svg>
