<svg width="28" height="23" viewBox="0 0 28 23" fill="none" xmlns="http://www.w3.org/2000/svg">
<path d="M27.3226 4.61503C26.8881 3.71192 26.2617 2.89354 25.4784 2.20568C24.6945 1.51577 23.7702 0.967516 22.7558 0.590719C21.704 0.198452 20.5759 -0.00233307 19.4369 2.04529e-05C17.8391 2.04529e-05 16.2801 0.392849 14.9253 1.13486C14.6012 1.31236 14.2933 1.50732 14.0016 1.71974C13.7099 1.50732 13.402 1.31236 13.0779 1.13486C11.7231 0.392849 10.1641 2.04529e-05 8.56626 2.04529e-05C7.41566 2.04529e-05 6.30072 0.19789 5.24736 0.590719C4.22965 0.968998 3.31242 1.51314 2.52483 2.20568C1.74047 2.89276 1.1139 3.71134 0.680633 4.61503C0.230119 5.55491 0 6.55299 0 7.58016C0 8.54914 0.220396 9.55885 0.657946 10.586C1.02419 11.4444 1.54925 12.3348 2.22016 13.234C3.28325 14.6569 4.74499 16.1409 6.56001 17.6453C9.56776 20.139 12.5463 21.8617 12.6727 21.9315L13.4409 22.3738C13.7812 22.5688 14.2188 22.5688 14.5591 22.3738L15.3272 21.9315C15.4536 21.8588 18.429 20.139 21.44 17.6453C23.255 16.1409 24.7167 14.6569 25.7798 13.234C26.4507 12.3348 26.979 11.4444 27.342 10.586C27.7796 9.55885 28 8.54914 28 7.58016C28.0032 6.55299 27.7731 5.55491 27.3226 4.61503ZM14.0016 20.0721C14.0016 20.0721 2.46324 13.4348 2.46324 7.58016C2.46324 4.61503 5.1955 2.2115 8.56626 2.2115C10.9355 2.2115 12.9904 3.39872 14.0016 5.13298C15.0128 3.39872 17.0677 2.2115 19.4369 2.2115C22.8077 2.2115 25.54 4.61503 25.54 7.58016C25.54 13.4348 14.0016 20.0721 14.0016 20.0721Z" fill="#A8A8A8"/>
</svg>
