<svg width="12" height="12" viewBox="0 0 12 12" fill="none" xmlns="http://www.w3.org/2000/svg">
<path d="M6.02899 12C6.0102 12 5.99142 12 5.97263 12C5.94539 11.9703 5.92238 11.937 5.89092 11.9112C4.52898 10.7978 3.15484 9.69459 1.80747 8.56947C0.339396 7.34417 -0.247175 5.85746 0.0947176 4.15002C0.637143 1.43996 3.70994 -0.372746 6.96637 0.0655601C9.52305 0.409943 11.5627 2.10486 11.928 4.22986C12.2183 5.91772 11.6298 7.38174 10.1768 8.58708C8.83128 9.7032 7.467 10.8037 6.11164 11.9116C6.08018 11.9374 6.0567 11.9703 6.02899 12ZM9.00129 4.92606C8.94493 3.50783 7.50222 2.42106 5.7937 2.50246C4.23265 2.57682 2.93599 3.75359 3.0008 5.07242C3.07031 6.48752 4.45713 7.55472 6.1525 7.49719C7.76052 7.44279 9.07033 6.26054 9.00129 4.92606Z" fill="white"/>
</svg>
