<svg width="36" height="36" viewBox="0 0 36 36" fill="none" xmlns="http://www.w3.org/2000/svg">
<path d="M10.5 23.4L17.25 12.6L22.5 20.7L26.25 15.3L31.5 23.4H10.5ZM33 3.6H21L18 0H9C8.20435 0 7.44129 0.379284 6.87868 1.05442C6.31607 1.72955 6 2.64522 6 3.6V25.2C6 26.1548 6.31607 27.0705 6.87868 27.7456C7.44129 28.4207 8.20435 28.8 9 28.8H33C33.7957 28.8 34.5587 28.4207 35.1213 27.7456C35.6839 27.0705 36 26.1548 36 25.2V7.2C36 6.24522 35.6839 5.32955 35.1213 4.65442C34.5587 3.97928 33.7957 3.6 33 3.6ZM3 7.2H0V32.4C0 33.3548 0.316071 34.2705 0.87868 34.9456C1.44129 35.6207 2.20435 36 3 36H30V32.4H3V7.2Z" fill="#FFFF00"/>
</svg>
