<svg width="28" height="29" viewBox="0 0 28 29" fill="none" xmlns="http://www.w3.org/2000/svg">
<path d="M16.8 5.00649C16.8 4.3372 16.505 3.69532 15.9799 3.22205C15.4548 2.74879 14.7426 2.48292 14 2.48292C13.2574 2.48292 12.5452 2.74879 12.0201 3.22205C11.495 3.69532 11.2 4.3372 11.2 5.00649H9.33333C9.33333 3.891 9.825 2.8212 10.7002 2.03243C11.5753 1.24366 12.7623 0.800537 14 0.800537C15.2377 0.800537 16.4247 1.24366 17.2998 2.03243C18.175 2.8212 18.6667 3.891 18.6667 5.00649H27.0667C27.3142 5.00649 27.5516 5.09511 27.7266 5.25287C27.9017 5.41062 28 5.62458 28 5.84768C28 6.07078 27.9017 6.28474 27.7266 6.44249C27.5516 6.60024 27.3142 6.68887 27.0667 6.68887H26.0325L23.6133 25.582C23.508 26.402 23.0719 27.1585 22.388 27.7075C21.7041 28.2566 20.8202 28.5599 19.9043 28.5598H8.09573C7.17985 28.5599 6.29587 28.2566 5.61198 27.7075C4.92809 27.1585 4.49199 26.402 4.38667 25.582L1.9656 6.68887H0.933333C0.714886 6.68893 0.503333 6.61994 0.335517 6.4939C0.167701 6.36786 0.0542537 6.19276 0.0149331 5.99909L0 5.84768C0 5.62458 0.0983332 5.41062 0.273367 5.25287C0.448401 5.09511 0.685798 5.00649 0.933333 5.00649H16.8ZM24.1509 6.68887H3.8472L6.24027 25.3885C6.29295 25.7987 6.51113 26.177 6.85327 26.4516C7.19542 26.7261 7.63763 26.8777 8.09573 26.8774H19.9043C20.362 26.8773 20.8038 26.7255 21.1456 26.451C21.4873 26.1765 21.7052 25.7984 21.7579 25.3885L24.1509 6.68887ZM11.2 10.8948C11.6573 10.8948 12.04 11.1556 12.1184 11.4988L12.1333 11.6317V21.9363C12.1333 22.3417 11.7152 22.6715 11.2 22.6715C10.7427 22.6715 10.36 22.4107 10.2816 22.0675L10.2667 21.9346V11.6334C10.2667 11.2262 10.6848 10.8965 11.2 10.8965V10.8948ZM16.8 10.8948C17.2573 10.8948 17.64 11.1556 17.7184 11.4988L17.7333 11.6317V21.9363C17.7333 22.3417 17.3152 22.6715 16.8 22.6715C16.3427 22.6715 15.96 22.4107 15.8816 22.0675L15.8667 21.9346V11.6334C15.8667 11.2262 16.2848 10.8965 16.8 10.8965V10.8948Z" fill="#929292"/>
</svg>
