<svg width="32" height="32" viewBox="0 0 32 32" fill="none" xmlns="http://www.w3.org/2000/svg">
<path d="M16.0102 17.8386C20.6961 17.8386 24.4951 19.6113 24.4951 21.7982V24.6264H7.52539V21.7982C7.52539 19.6113 11.3243 17.8386 16.0102 17.8386ZM23.3638 21.7982C23.3638 20.2369 20.0717 18.9699 16.0102 18.9699C11.9488 18.9699 8.6567 20.2369 8.6567 21.7982V23.4951H23.3638V21.7982ZM16.0102 7.65674C17.0604 7.65674 18.0675 8.07391 18.8101 8.81648C19.5527 9.55905 19.9698 10.5662 19.9698 11.6163C19.9698 12.6665 19.5527 13.6736 18.8101 14.4162C18.0675 15.1588 17.0604 15.5759 16.0102 15.5759C14.9601 15.5759 13.953 15.1588 13.2104 14.4162C12.4678 13.6736 12.0506 12.6665 12.0506 11.6163C12.0506 10.5662 12.4678 9.55905 13.2104 8.81648C13.953 8.07391 14.9601 7.65674 16.0102 7.65674ZM16.0102 8.78805C15.2601 8.78805 14.5407 9.08603 14.0103 9.61644C13.4799 10.1468 13.182 10.8662 13.182 11.6163C13.182 12.3664 13.4799 13.0858 14.0103 13.6162C14.5407 14.1466 15.2601 14.4446 16.0102 14.4446C16.7603 14.4446 17.4797 14.1466 18.0101 13.6162C18.5405 13.0858 18.8385 12.3664 18.8385 11.6163C18.8385 10.8662 18.5405 10.1468 18.0101 9.61644C17.4797 9.08603 16.7603 8.78805 16.0102 8.78805Z" fill="black"/>
<circle cx="16" cy="16" r="15.5" stroke="black"/>
</svg>
