<svg width="36" height="37" viewBox="0 0 36 37" fill="none" xmlns="http://www.w3.org/2000/svg">
<path d="M18 0.357422C27.9 0.357422 36 8.45742 36 18.3574C36 28.2574 27.9 36.3574 18 36.3574C8.1 36.3574 0 28.2574 0 18.3574C0 8.45742 8.1 0.357422 18 0.357422ZM18 3.95742C10.044 3.95742 3.6 10.4014 3.6 18.3574C3.6 26.3134 10.044 32.7574 18 32.7574C25.956 32.7574 32.4 26.3134 32.4 18.3574C32.4 10.4014 25.956 3.95742 18 3.95742ZM18 5.75742C24.966 5.75742 30.6 11.3914 30.6 18.3574C30.6 25.3234 24.966 30.9574 18 30.9574C14.526 30.9574 11.376 29.5534 9.09 27.2674L18 18.3574V5.75742Z" fill="#12138C"/>
</svg>
