<svg width="26" height="29" viewBox="0 0 26 29" fill="none" xmlns="http://www.w3.org/2000/svg">
<path d="M23.6114 15.4512C23.7946 15.4512 23.9648 15.5305 24.1087 15.6759L25.784 17.3679C26.072 17.6455 26.072 18.1081 25.784 18.3857L24.4752 19.7076L21.7921 16.9978L23.1009 15.6759C23.2449 15.5305 23.4281 15.4512 23.6114 15.4512ZM21.033 17.7644L23.7161 20.4743L15.7845 28.498H13.0883V25.775L21.033 17.7644ZM10.4707 24.5324L7.85301 27.1761H2.61767C1.17795 27.1761 0 25.9865 0 24.5324V6.02625C0 4.57219 1.17795 3.38251 2.61767 3.38251H8.0886C8.63831 1.84914 10.078 0.73877 11.7795 0.73877C13.481 0.73877 14.9207 1.84914 15.4704 3.38251H20.9414C22.3811 3.38251 23.559 4.57219 23.559 6.02625V11.3137L20.9414 13.9575V6.02625H18.3237V8.66998H5.23534V6.02625H2.61767V24.5324H10.4707ZM11.7795 3.38251C11.0597 3.38251 10.4707 3.97735 10.4707 4.70438C10.4707 5.4314 11.0597 6.02625 11.7795 6.02625C12.4994 6.02625 13.0883 5.4314 13.0883 4.70438C13.0883 3.97735 12.4994 3.38251 11.7795 3.38251Z" fill="#929292"/>
</svg>
