<svg width="28" height="28" viewBox="0 0 28 28" fill="none" xmlns="http://www.w3.org/2000/svg">
<path d="M1.62167 26.3733L1.62643 26.3781C1.75259 26.5051 1.90263 26.606 2.06792 26.675C2.23322 26.7439 2.4105 26.7794 2.58958 26.7796C2.74027 26.7795 2.88991 26.7546 3.03255 26.706L10.7985 24.0716L25.7008 9.16927C26.6119 8.25817 27.1236 7.02248 27.1236 5.73405C27.1235 4.44562 26.6116 3.20998 25.7005 2.29896C24.7894 1.38794 23.5538 0.876164 22.2653 0.876221C20.9769 0.876277 19.7413 1.38816 18.8302 2.29926L3.92789 17.2016L1.29371 24.9673C1.21073 25.2088 1.19749 25.4688 1.25549 25.7175C1.3135 25.9662 1.44041 26.1934 1.62167 26.3733ZM20.0678 3.53667C20.6514 2.95749 21.4407 2.63318 22.263 2.63476C23.0852 2.63634 23.8733 2.96368 24.4547 3.5451C25.0361 4.12651 25.3635 4.91463 25.365 5.73687C25.3666 6.5591 25.0422 7.34845 24.463 7.93207L22.5034 9.89174L18.108 5.49634L20.0678 3.53667ZM5.45422 18.1502L16.8706 6.73376L21.266 11.1292L9.84956 22.5455L3.19771 24.802L5.45422 18.1502Z" fill="#012060"/>
</svg>
