<svg width="36" height="36" viewBox="0 0 36 36" fill="none" xmlns="http://www.w3.org/2000/svg">
<g clip-path="url(#clip0_344:1401)">
<path d="M17.9998 -0.0380859C8.0537 -0.0380859 -0.0395508 8.05292 -0.0395508 18.0002C-0.0395508 27.9474 8.0537 36.0384 17.9998 36.0384C27.9459 36.0384 36.0392 27.9474 36.0392 18.0002C36.0392 8.05292 27.9459 -0.0380859 17.9998 -0.0380859ZM17.9998 34.8369C8.71632 34.8369 1.1642 27.2837 1.1642 18.0002C1.1642 8.71667 8.71632 1.16341 17.9998 1.16341C27.2833 1.16341 34.8354 8.71667 34.8354 18.0002C34.8354 27.2837 27.2833 34.8369 17.9998 34.8369Z" fill="#F8F8F8"/>
<path d="M21.9375 7.87529H18.936C15.1133 7.83704 14.625 10.2029 14.625 12.7634V14.6253H12.9375C12.8612 14.6151 12.7836 14.6226 12.7108 14.6473C12.6379 14.672 12.5716 14.7131 12.5172 14.7675C12.4628 14.8219 12.4217 14.8881 12.397 14.961C12.3724 15.0339 12.3648 15.1115 12.375 15.1878V18.5628C12.3648 18.6391 12.3724 18.7166 12.397 18.7895C12.4217 18.8624 12.4628 18.9287 12.5172 18.9831C12.5716 19.0375 12.6379 19.0786 12.7108 19.1033C12.7836 19.1279 12.8612 19.1355 12.9375 19.1253H14.625V27.5628C14.6156 27.6392 14.6239 27.7167 14.649 27.7895C14.6742 27.8622 14.7157 27.9283 14.7703 27.9825C14.8249 28.0368 14.8911 28.0779 14.964 28.1026C15.0369 28.1274 15.1145 28.1351 15.1909 28.1253H18.6278C18.9596 28.1635 19.2285 27.8947 19.1228 27.5628L19.125 19.1253H21.9375C22.0138 19.1355 22.0914 19.1279 22.1643 19.1033C22.2372 19.0786 22.3034 19.0375 22.3578 18.9831C22.4122 18.9287 22.4533 18.8624 22.478 18.7895C22.5027 18.7166 22.5102 18.6391 22.5 18.5628V15.1878C22.5102 15.1115 22.5027 15.0339 22.478 14.961C22.4533 14.8881 22.4122 14.8219 22.3578 14.7675C22.3034 14.7131 22.2372 14.672 22.1643 14.6473C22.0914 14.6226 22.0138 14.6151 21.9375 14.6253H19.1216L19.125 12.9378C19.2341 12.2189 19.2341 12.3359 19.9013 12.3753H21.9139C22.0703 12.3404 22.2368 12.3595 22.3538 12.2459C22.4708 12.1323 22.5383 11.977 22.4989 11.8128V8.43779C22.5093 8.36158 22.5019 8.284 22.4774 8.2111C22.4529 8.1382 22.4118 8.07194 22.3575 8.0175C22.3032 7.96306 22.237 7.9219 22.1642 7.89724C22.0913 7.87257 22.0137 7.86506 21.9375 7.87529ZM21.3356 11.1873L19.9249 11.1333C18.1778 11.1333 18.0315 12.0817 18.0315 13.0525L18.027 15.1855C18.0269 15.2645 18.0423 15.3428 18.0724 15.4158C18.1025 15.4888 18.1468 15.5552 18.2026 15.6111C18.2584 15.667 18.3246 15.7113 18.3976 15.7416C18.4706 15.7718 18.5488 15.7874 18.6278 15.7874H21.375V17.9609H18.63C18.4706 17.9609 18.3177 18.0242 18.2048 18.1368C18.092 18.2494 18.0284 18.4022 18.0281 18.5617L18.027 27.0003H15.75V18.5628C15.75 18.2309 15.5239 17.962 15.1909 17.962H13.5V15.7885H15.1909C15.2698 15.7887 15.348 15.7732 15.421 15.7431C15.4939 15.713 15.5603 15.6688 15.6161 15.613C15.7286 15.4994 15.7489 15.3464 15.7489 15.1867V12.7623C15.7489 10.24 16.2585 9.03854 18.9349 9.03854H21.3345V11.1873H21.3356Z" fill="#F8F8F8"/>
</g>
<defs>
<clipPath id="clip0_344:1401">
<rect width="36" height="36" fill="white"/>
</clipPath>
</defs>
</svg>
