<svg width="100" height="100" viewBox="0 0 100 100" fill="none" xmlns="http://www.w3.org/2000/svg">
<path d="M50.0323 55.7442C64.6757 55.7442 76.5474 61.2841 76.5474 68.1179V76.9563H23.5171V68.1179C23.5171 61.2841 35.3888 55.7442 50.0323 55.7442ZM73.0121 68.1179C73.0121 63.2392 62.7242 59.2796 50.0323 59.2796C37.3403 59.2796 27.0524 63.2392 27.0524 68.1179V73.421H73.0121V68.1179ZM50.0323 23.926C53.314 23.926 56.4613 25.2297 58.7818 27.5502C61.1023 29.8707 62.406 33.018 62.406 36.2998C62.406 39.5815 61.1023 42.7288 58.7818 45.0493C56.4613 47.3698 53.314 48.6735 50.0323 48.6735C46.7505 48.6735 43.6032 47.3698 41.2827 45.0493C38.9622 42.7288 37.6585 39.5815 37.6585 36.2998C37.6585 33.018 38.9622 29.8707 41.2827 27.5502C43.6032 25.2297 46.7505 23.926 50.0323 23.926ZM50.0323 27.4614C47.6882 27.4614 45.4401 28.3926 43.7826 30.0501C42.125 31.7076 41.1939 33.9557 41.1939 36.2998C41.1939 38.6438 42.125 40.8919 43.7826 42.5494C45.4401 44.207 47.6882 45.1381 50.0323 45.1381C52.3763 45.1381 54.6244 44.207 56.2819 42.5494C57.9395 40.8919 58.8706 38.6438 58.8706 36.2998C58.8706 33.9557 57.9395 31.7076 56.2819 30.0501C54.6244 28.3926 52.3763 27.4614 50.0323 27.4614Z" fill="#8C8C8C"/>
<circle cx="50" cy="50" r="48" stroke="#8C8C8C" stroke-width="4"/>
</svg>
