<svg width="36" height="36" viewBox="0 0 36 36" fill="none" xmlns="http://www.w3.org/2000/svg">
<path d="M35.2796 0.557214C34.9943 0.283889 34.6469 0.102372 34.2752 0.0323494C33.9034 -0.0376728 33.5214 0.00647249 33.1707 0.159998L1.31364 14.0329C0.897255 14.2143 0.545048 14.5403 0.309713 14.9621C0.0743775 15.3839 -0.0314339 15.8788 0.00810801 16.3728C0.0476499 16.8668 0.230419 17.3333 0.529074 17.7025C0.827728 18.0718 1.22621 18.3239 1.66491 18.4212L10.3118 20.3384V32.1692C10.3075 32.6244 10.4273 33.0704 10.6554 33.4489C10.8836 33.8274 11.2095 34.1207 11.5905 34.2904C11.8457 34.4089 12.1196 34.4703 12.3963 34.4712C12.6667 34.4703 12.9343 34.4098 13.1835 34.2934C13.4327 34.1769 13.6586 34.0067 13.848 33.7927L18.784 28.3212L26.0671 35.4256C26.4424 35.7951 26.9267 35.9994 27.4287 36C27.6469 35.9998 27.8637 35.9617 28.0713 35.8871C28.4136 35.7668 28.7215 35.549 28.9642 35.2556C29.2069 34.9621 29.3759 34.6033 29.4545 34.2148L35.9471 2.81002C36.0319 2.40275 36.0145 1.97753 35.8968 1.58043C35.7792 1.18333 35.5657 0.829485 35.2796 0.557214ZM1.38338 16.2373C1.36626 16.072 1.39992 15.9052 1.47891 15.7637C1.5579 15.6222 1.67762 15.5144 1.81871 15.4576L31.0206 2.74076L10.8421 18.895L1.93574 16.9204C1.78776 16.892 1.65274 16.8092 1.55251 16.6852C1.45227 16.5613 1.39268 16.4035 1.38338 16.2373ZM12.8713 32.7105C12.7747 32.8175 12.6517 32.8904 12.5178 32.9199C12.3839 32.9494 12.245 32.9343 12.1189 32.8763C11.9927 32.8184 11.8849 32.7203 11.8091 32.5944C11.7332 32.4686 11.6927 32.3206 11.6927 32.1692V21.4038L17.7452 27.3079L12.8713 32.7105ZM34.6011 2.4681L28.1082 33.8729C28.0815 34.0021 28.025 34.1214 27.9442 34.2192C27.8634 34.3169 27.761 34.3897 27.6472 34.4304C27.5334 34.4711 27.412 34.4783 27.2949 34.4513C27.1778 34.4244 27.069 34.3642 26.9792 34.2766L12.1078 19.7698L34.4894 1.85199C34.5483 1.93891 34.5889 2.03934 34.6082 2.14592C34.6276 2.2525 34.6251 2.36252 34.6011 2.46791V2.4681Z" fill="white"/>
</svg>
