<svg width="36" height="36" viewBox="0 0 36 36" fill="none" xmlns="http://www.w3.org/2000/svg">
<path d="M5.13697 3.86257C5.05329 3.77889 4.95395 3.71251 4.84462 3.66723C4.73529 3.62194 4.61811 3.59863 4.49977 3.59863C4.38143 3.59863 4.26425 3.62194 4.15492 3.66723C4.04559 3.71251 3.94625 3.77889 3.86257 3.86257C3.77889 3.94625 3.71251 4.04559 3.66723 4.15492C3.62194 4.26425 3.59863 4.38143 3.59863 4.49977C3.59863 4.61811 3.62194 4.73529 3.66723 4.84462C3.71251 4.95395 3.77889 5.05329 3.86257 5.13697L10.1626 11.4334C7.0424 13.5616 4.87022 16.8179 4.10377 20.5162C4.07966 20.632 4.0786 20.7514 4.10065 20.8677C4.1227 20.9839 4.16742 21.0947 4.23228 21.1936C4.29713 21.2926 4.38084 21.3778 4.47862 21.4444C4.5764 21.511 4.68634 21.5577 4.80217 21.5818C4.918 21.6059 5.03744 21.6069 5.15367 21.5849C5.26991 21.5628 5.38066 21.5181 5.47961 21.4533C5.57856 21.3884 5.66377 21.3047 5.73037 21.2069C5.79697 21.1091 5.84366 20.9992 5.86777 20.8834C6.21115 19.2212 6.88264 17.6442 7.84293 16.2447C8.80323 14.8452 10.033 13.6514 11.4604 12.733L14.3152 15.5878C13.575 16.1215 12.9595 16.8097 12.5115 17.6047C12.0634 18.3998 11.7935 19.2826 11.7202 20.1923C11.647 21.1019 11.7723 22.0166 12.0874 22.8731C12.4025 23.7295 12.8998 24.5073 13.5451 25.1526C14.1904 25.7979 14.9682 26.2953 15.8247 26.6104C16.6811 26.9255 17.5958 27.0507 18.5055 26.9775C19.4151 26.9043 20.298 26.6343 21.093 26.1862C21.888 25.7382 22.5762 25.1228 23.11 24.3826L30.8626 32.137C31.0316 32.306 31.2608 32.4009 31.4998 32.4009C31.7388 32.4009 31.968 32.306 32.137 32.137C32.306 31.968 32.4009 31.7388 32.4009 31.4998C32.4009 31.2608 32.306 31.0316 32.137 30.8626L5.13697 3.86257ZM21.814 23.0866C21.4547 23.6598 20.9709 24.1446 20.3984 24.505C19.8259 24.8653 19.1795 25.092 18.5074 25.1681C17.8352 25.2443 17.1545 25.1679 16.516 24.9446C15.8774 24.7214 15.2974 24.357 14.819 23.8787C14.3407 23.4004 13.9764 22.8204 13.7531 22.1818C13.5299 21.5432 13.4535 20.8625 13.5296 20.1904C13.6057 19.5182 13.8324 18.8718 14.1928 18.2994C14.5532 17.7269 15.038 17.243 15.6112 16.8838L21.814 23.0884V23.0866Z" fill="#929292"/>
<path d="M18.2217 14.4036L24.2967 20.4768C24.2403 18.8841 23.5824 17.3719 22.4554 16.2449C21.3284 15.118 19.8162 14.46 18.2235 14.4036H18.2217Z" fill="#929292"/>
<path d="M17.9994 10.8C16.9734 10.8 15.9672 10.9332 15.0006 11.1834L13.5552 9.738C14.986 9.24963 16.4875 9.00029 17.9994 9C24.6468 9 30.495 13.8114 31.8954 20.5164C31.9441 20.7503 31.8978 20.994 31.7669 21.1938C31.6359 21.3937 31.4309 21.5333 31.197 21.582C30.9631 21.6307 30.7194 21.5845 30.5195 21.4535C30.3197 21.3225 30.1801 21.1175 30.1314 20.8836C28.9038 14.9886 23.772 10.8 17.9994 10.8Z" fill="#929292"/>
</svg>
