<svg width="36" height="36" viewBox="0 0 36 36" fill="none" xmlns="http://www.w3.org/2000/svg">
<path d="M18 3.375C15.1075 3.375 12.2799 4.23274 9.87479 5.83976C7.46972 7.44677 5.5952 9.73089 4.48827 12.4033C3.38134 15.0756 3.09171 18.0162 3.65602 20.8532C4.22033 23.6902 5.61323 26.2961 7.65857 28.3414C9.70391 30.3868 12.3098 31.7797 15.1468 32.344C17.9838 32.9083 20.9244 32.6187 23.5968 31.5117C26.2691 30.4048 28.5532 28.5303 30.1603 26.1252C31.7673 23.7201 32.625 20.8926 32.625 18C32.6206 14.1226 31.0784 10.4052 28.3366 7.66341C25.5948 4.92165 21.8775 3.37939 18 3.375ZM18 29.25C16.1499 29.25 14.3284 28.7938 12.6967 27.9217C11.0651 27.0496 9.67373 25.7885 8.64587 24.2502C7.61801 22.712 6.98538 20.9439 6.80403 19.1028C6.62268 17.2616 6.89821 15.4041 7.6062 13.6948C8.3142 11.9856 9.4328 10.4773 10.8629 9.30363C12.2931 8.12995 13.9906 7.32708 15.8051 6.96616C17.6197 6.60523 19.4952 6.69738 21.2656 7.23444C23.036 7.77151 24.6467 8.73691 25.9549 10.0451C26.0613 10.1492 26.146 10.2733 26.2041 10.4102C26.2622 10.5472 26.2925 10.6944 26.2933 10.8432C26.2942 10.992 26.2655 11.1395 26.2089 11.2771C26.1524 11.4147 26.0691 11.5398 25.9638 11.645C25.8586 11.7502 25.7336 11.8335 25.596 11.89C25.4583 11.9466 25.3108 11.9753 25.162 11.9745C25.0133 11.9736 24.8661 11.9433 24.7291 11.8852C24.5921 11.8271 24.468 11.7424 24.364 11.636C22.9258 10.1981 21.043 9.28972 19.0225 9.05889C17.0019 8.82805 14.9627 9.28838 13.2373 10.3649C11.5119 11.4413 10.2019 13.0705 9.52092 14.9868C8.83993 16.903 8.82806 18.9935 9.48726 20.9174C10.1465 22.8413 11.4378 24.4852 13.1509 25.5812C14.864 26.6772 16.8979 27.1606 18.9209 26.9527C20.9439 26.7449 22.8369 25.8579 24.2913 24.4364C25.7457 23.0149 26.6758 21.1428 26.93 19.125H18C17.7016 19.125 17.4155 19.0065 17.2045 18.7955C16.9935 18.5845 16.875 18.2984 16.875 18C16.875 17.7016 16.9935 17.4155 17.2045 17.2045C17.4155 16.9935 17.7016 16.875 18 16.875H28.125C28.4234 16.875 28.7095 16.9935 28.9205 17.2045C29.1315 17.4155 29.25 17.7016 29.25 18C29.2467 20.9827 28.0603 23.8422 25.9513 25.9513C23.8422 28.0603 20.9827 29.2467 18 29.25Z" fill="#F8F8F8"/>
</svg>
