<svg width="44" height="48" viewBox="0 0 44 48" fill="none" xmlns="http://www.w3.org/2000/svg">
<path fill-rule="evenodd" clip-rule="evenodd" d="M21.9999 44.9997C20.7313 44.9997 19.4579 44.905 18.2148 44.7185C17.3267 44.5853 16.5439 44.0777 16.0678 43.3258C15.6142 42.6091 15.4927 41.7372 15.7353 40.9326C15.9774 40.1318 16.1 39.3002 16.1 38.461C16.1 37.0991 15.772 35.8065 15.1968 34.6508C15.5223 34.8649 15.9576 34.8772 16.3013 34.647C16.5818 34.4597 16.8459 34.25 17.1224 34.0572C17.7439 35.4066 18.1001 36.8953 18.1001 38.461C18.1001 39.496 17.9486 40.5226 17.6503 41.5107C17.5478 41.8499 17.6732 42.1232 17.7572 42.2555C17.9228 42.5168 18.1977 42.6935 18.5117 42.7407C19.6566 42.9126 20.8305 42.9998 21.9999 42.9998C33.0277 42.9998 41.9999 35.3738 41.9999 25.9998C41.9999 21.0721 39.5055 16.6409 35.5516 13.5333L36.705 11.9081C41.1713 15.3883 44 20.4077 44 25.9998C44 36.4763 34.1308 44.9997 21.9999 44.9997ZM38.9999 25.9998C38.9999 27.6542 37.6542 28.9995 36 28.9995C34.3456 28.9995 33 27.6542 33 25.9998C33 24.3451 34.3456 22.9998 36 22.9998C37.6542 22.9998 38.9999 24.3451 38.9999 25.9998ZM35 25.9998C35 26.5509 35.4487 26.9996 36 26.9996C36.5512 26.9996 36.9999 26.5509 36.9999 25.9998C36.9999 25.4481 36.5512 24.9997 36 24.9997C35.4487 24.9997 35 25.4481 35 25.9998ZM32.9998 21.9994C31.9561 21.9994 31.0372 21.4625 30.4997 20.6514L33.7299 16.0999C35.0306 16.4284 35.9998 17.5985 35.9998 18.9995C35.9998 20.6539 34.6542 21.9994 32.9998 21.9994ZM32.9998 17.9997C32.4486 17.9997 31.9999 18.4484 31.9999 18.9995C31.9999 19.5512 32.4486 19.9995 32.9998 19.9995C33.5512 19.9995 33.9998 19.5512 33.9998 18.9995C33.9998 18.4484 33.5512 17.9997 32.9998 17.9997ZM25.9999 38.9995C23.7944 38.9995 21.9999 37.2052 21.9999 34.9997C21.9999 32.7942 23.7944 30.9994 25.9999 30.9994C28.2055 30.9994 29.9999 32.7942 29.9999 34.9997C29.9999 37.2052 28.2055 38.9995 25.9999 38.9995ZM25.9999 32.9999C24.8969 32.9999 24 33.8966 24 34.9997C24 36.1028 24.8969 36.9996 25.9999 36.9996C27.103 36.9996 27.9999 36.1028 27.9999 34.9997C27.9999 33.8966 27.103 32.9999 25.9999 32.9999ZM28.1699 9.83645C26.2245 9.29861 24.1536 8.99947 21.9999 8.99947C10.9721 8.99947 1.99989 16.6255 1.99989 25.9998C1.99989 26.5395 2.03025 27.0827 2.08934 27.614C2.12687 27.9499 2.30956 28.2403 2.59024 28.4112C2.73772 28.501 3.04141 28.6298 3.41101 28.4878C3.92572 28.2897 4.50481 28.5469 4.70356 29.0628C4.90134 29.5782 4.64394 30.157 4.12883 30.3551C3.27532 30.6832 2.33578 30.5972 1.55074 30.1199C0.736164 29.6239 0.207944 28.7916 0.10208 27.8356C0.0341 27.2316 0 26.6136 0 25.9998C0 15.5231 9.86907 6.9996 21.9999 6.9996C24.607 6.9996 27.0947 7.4209 29.4166 8.14483C29.3183 8.35738 29.2383 8.57971 29.1744 8.81304L28.1699 9.83645ZM8.06916 27.7953C9.5183 27.8967 10.8839 28.2869 12.1167 28.9C11.7861 29.4775 11.484 30.071 11.1754 30.6612C10.1849 30.1778 9.08956 29.8714 7.92968 29.7905C7.37889 29.7521 6.96335 29.2747 7.00194 28.7233C7.03996 28.1729 7.51309 27.7563 8.06916 27.7953ZM19.9999 11.9998C21.6542 11.9998 22.9999 13.3453 22.9999 14.9997C22.9999 15.0394 22.9896 15.0762 22.9881 15.1156L22.0419 16.0795C21.4429 16.69 20.8686 17.3299 20.3001 17.9691C20.1999 17.9792 20.1027 17.9997 19.9999 17.9997C18.3456 17.9997 16.9999 16.6541 16.9999 14.9997C16.9999 13.3453 18.3456 11.9998 19.9999 11.9998ZM19.9999 15.9995C20.5513 15.9995 21 15.5508 21 14.9997C21 14.4483 20.5513 13.9996 19.9999 13.9996C19.4486 13.9996 18.9999 14.4483 18.9999 14.9997C18.9999 15.5508 19.4486 15.9995 19.9999 15.9995ZM7.9999 19.9995C7.9999 18.3455 9.34564 16.9996 10.9999 16.9996C12.6543 16.9996 13.9999 18.3455 13.9999 19.9995C13.9999 21.654 12.6543 22.9998 10.9999 22.9998C9.34564 22.9998 7.9999 21.654 7.9999 19.9995ZM12 19.9995C12 19.4485 11.5513 18.9995 10.9999 18.9995C10.4486 18.9995 9.99992 19.4485 9.99992 19.9995C9.99992 20.5509 10.4486 21 10.9999 21C11.5513 21 12 20.5509 12 19.9995ZM38.2628 0.688512C37.491 0.743328 36.7664 1.07803 36.2245 1.63037L22.0419 16.0795C21.2802 16.8557 20.5355 17.6643 19.8276 18.4818L17.974 20.6224C14.9288 24.1397 12.3616 28.0523 10.3457 32.2513L9.83352 33.3188C9.75599 33.48 9.72272 33.6592 9.7383 33.8378L9.75577 34.0428C9.78476 34.3841 9.98624 34.6864 10.289 34.8454C10.5857 35.0004 10.8652 35.1918 11.1195 35.4132C12.2566 36.4022 12.7264 37.8441 12.4949 39.1462C11.8338 39.8566 10.5704 39.9092 9.88698 39.1941C8.7153 37.9669 7.04713 37.6719 5.64309 38.439C5.15803 38.7032 4.979 39.3106 5.24229 39.7968C5.50664 40.2823 6.11314 40.4615 6.59727 40.1983C7.20196 39.8701 7.90676 40.0156 8.44246 40.5771C9.04363 41.2072 9.83646 41.5939 10.6884 41.7025C8.63764 43.1542 5.08534 44.3819 2.78058 45.0451C3.17724 42.1808 4.12588 37.402 5.71802 35.5634C6.08788 35.1358 6.54544 34.8161 7.07687 34.6127C7.59308 34.4159 7.85145 33.8375 7.65433 33.3207C7.45738 32.8046 6.87839 32.5445 6.36513 32.7423C5.52235 33.0641 4.79728 33.5714 4.20869 34.2506C1.49076 37.3904 0.652476 45.9353 0.61864 46.2977C0.587576 46.6195 0.714692 46.9363 0.95876 47.1485C1.16081 47.3239 1.42221 47.4096 1.6841 47.391C1.73862 47.3872 1.79278 47.379 1.84752 47.3658C2.2004 47.2805 10.5251 45.2453 13.244 42.1056C15.2856 39.7477 14.92 36.0672 12.4298 33.9017C12.2766 33.7685 12.117 33.6425 11.9522 33.5248L12.1466 33.1195C13.0445 31.2491 14.068 29.4454 15.1862 27.7034L18.476 30.5639C17.4109 31.4087 16.3233 32.2252 15.1915 32.9822C14.733 33.2886 14.6087 33.9105 14.9152 34.3705C15.2217 34.83 15.8429 34.9541 16.3013 34.647C20.1873 32.0483 23.7103 28.9378 26.7718 25.4021L27.0963 25.0261C28.1968 23.7562 29.2455 22.4192 30.2148 21.0528L41.0784 5.74598C41.5034 5.1455 41.7086 4.41149 41.6537 3.63686C41.5298 1.88765 40.0089 0.565104 38.2628 0.688512ZM39.4497 4.58626L28.5861 19.8922C27.6541 21.2062 26.6449 22.4922 25.586 23.7144L25.2615 24.0903C23.6524 25.9488 21.8992 27.6722 20.04 29.2731L16.4099 26.1173C16.3785 26.0899 16.3392 26.0808 16.3055 26.058C17.3001 24.6357 18.3456 23.2486 19.4833 21.9349L21.3369 19.7942C22.0177 19.008 22.7354 18.2302 23.4678 17.4833L37.6485 3.03509C37.8502 2.83013 38.1183 2.70634 38.4043 2.68589C39.0506 2.64024 39.6145 3.12989 39.6634 3.81979C39.6827 4.09157 39.6061 4.36459 39.4497 4.58626Z" fill="#102D6A"/>
</svg>
