<svg width="30" height="44" viewBox="0 0 30 44" fill="none" xmlns="http://www.w3.org/2000/svg">
<path fill-rule="evenodd" clip-rule="evenodd" d="M19 4.99981H10.9999C10.4477 4.99981 9.99996 4.55206 9.99996 3.99973C9.99996 3.4474 10.4477 2.9993 10.9999 2.9993H13.9999V0.99946C13.9999 0.447128 14.4477 -0.000352 14.9999 -0.000352C15.5527 -0.000352 16 0.447128 16 0.99946V2.9993H19C19.5527 2.9993 19.9999 3.4474 19.9999 3.99973C19.9999 4.55206 19.5527 4.99981 19 4.99981ZM20.6836 33.0506C21.2128 32.8743 21.7734 33.1596 21.9482 33.683L24.9482 42.6826C25.1229 43.2065 24.8397 43.773 24.3163 43.9481C24.2109 43.9831 24.1044 43.9994 24 43.9994C23.5811 43.9994 23.1913 43.7346 23.0517 43.3158L21.2796 37.9992H19C18.4473 37.9992 17.9999 37.5517 17.9999 36.9994C17.9999 36.4471 18.4473 35.9993 19 35.9993H20.6129L20.0517 34.3156C19.8769 33.7916 20.1602 33.2254 20.6836 33.0506ZM13.9999 33.9994C13.9999 33.4471 14.4477 32.9996 14.9999 32.9996C15.5527 32.9996 16 33.4471 16 33.9994V42.999C16 43.5513 15.5527 43.9991 14.9999 43.9991C14.4477 43.9991 13.9999 43.5513 13.9999 42.999V33.9994ZM3.99999 27.9992H25.9999C27.6543 27.9992 28.9999 26.654 28.9999 24.9995V8.99958C28.9999 7.34514 27.6543 5.99962 25.9999 5.99962H3.99999C2.34561 5.99962 0.99999 7.34514 0.99999 8.99958V24.9995C0.99999 26.654 2.34561 27.9992 3.99999 27.9992ZM2.99991 8.99958C2.99991 8.44818 3.44859 7.99977 3.99999 7.99977H25.9999C26.5518 7.99977 27 8.44818 27 8.99958V24.9995C27 25.5506 26.5518 25.9993 25.9999 25.9993H3.99999C3.44859 25.9993 2.99991 25.5506 2.99991 24.9995V8.99958ZM28.9999 28.9993H0.99999C0.44778 28.9993 -9e-05 29.447 -9e-05 29.9994C-9e-05 30.5514 0.44778 30.9995 0.99999 30.9995H28.9999C29.5526 30.9995 30 30.5514 30 29.9994C30 29.447 29.5526 28.9993 28.9999 28.9993ZM9.99996 15.9993C11.6542 15.9993 13 14.6538 13 12.9993C13 11.3455 11.6542 9.99966 9.99996 9.99966C8.34561 9.99966 6.99996 11.3455 6.99996 12.9993C6.99996 14.6538 8.34561 15.9993 9.99996 15.9993ZM9.99996 11.9995C10.5512 11.9995 10.9999 12.4483 10.9999 12.9993C10.9999 13.551 10.5512 13.9994 9.99996 13.9994C9.44859 13.9994 8.99988 13.551 8.99988 12.9993C8.99988 12.4483 9.44859 11.9995 9.99996 11.9995ZM6.51456 23.8571L10.6571 21.3713C11.4677 20.8842 12.5321 20.8842 13.3427 21.3713L17.4853 23.8571C17.6464 23.9534 17.8242 23.9994 17.9989 23.9994C18.3388 23.9994 18.6699 23.8265 18.8574 23.5142C19.1416 23.0406 18.9883 22.4262 18.5146 22.1419L17.0134 21.2413L20.3876 15.3358C20.6348 14.9082 21.3457 14.9271 21.5664 15.3692L24.1054 20.4465C24.3524 20.9406 24.953 21.1402 25.4472 20.894C25.9414 20.6471 26.1416 20.0463 25.8944 19.5522L23.3554 14.4749C22.9014 13.5648 21.9863 12.9993 20.9687 12.9993C20.0127 12.9993 19.1249 13.5151 18.6513 14.3442L15.2981 20.2122L14.372 19.6567C12.9404 18.7974 11.0595 18.7974 9.62787 19.6567L5.48535 22.1419C5.01162 22.4262 4.85832 23.0406 5.14251 23.5142C5.42715 23.9878 6.04191 24.1414 6.51456 23.8571ZM9.38745 35.9993H10.9999C11.5521 35.9993 11.9999 36.4471 11.9999 36.9994C11.9999 37.5517 11.5521 37.9992 10.9999 37.9992H8.72091L6.94863 43.3158C6.80901 43.7346 6.41886 43.9994 5.99991 43.9994C5.89545 43.9994 5.78853 43.9831 5.6835 43.9481C5.15961 43.773 4.8765 43.2065 5.05128 42.6826L8.05128 33.683C8.22558 33.1596 8.78958 32.8743 9.31629 33.0506C9.8403 33.2254 10.1234 33.7916 9.94863 34.3156L9.38745 35.9993Z" fill="#102D6A"/>
</svg>
