<svg width="43" height="40" viewBox="0 0 43 40" fill="none" xmlns="http://www.w3.org/2000/svg">
<path fill-rule="evenodd" clip-rule="evenodd" d="M36.696 22.911C36.7842 26.65 35.6141 32.2585 29.7033 38.2874H31.7668C32.2515 38.2874 32.6447 38.671 32.6447 39.1436C32.6447 39.6163 32.2515 39.9998 31.7668 39.9998H27.5716H15.4281H11.2331C10.7484 39.9998 10.3552 39.6163 10.3552 39.1436C10.3552 38.671 10.7484 38.2874 11.2331 38.2874H13.2966C7.38585 32.2588 6.21574 26.65 6.30389 22.9113C2.61608 21.8885 0 18.6156 0 14.8132C0 10.1506 3.88935 6.35716 8.67026 6.35716C10.7772 6.35716 12.7619 7.10188 14.3234 8.42188C14.4355 7.85948 14.5052 7.31472 14.5383 6.79452C14.538 6.77408 14.528 6.75548 14.5292 6.735C14.5828 5.79948 14.5309 4.84912 14.3737 3.90916C14.3701 3.88808 14.3791 3.86792 14.3772 3.84684C14.1111 2.33064 13.6556 1.3444 13.5975 1.22504C13.4683 0.9596 13.4873 0.64752 13.6483 0.3994C13.8089 0.15128 14.0884 -0.0002 14.3897 -0.0002H28.6102C28.912 -0.0002 29.1926 0.15096 29.3532 0.40004C29.5139 0.64912 29.5321 0.96148 29.4013 1.2266C29.3435 1.34532 28.8886 2.33096 28.6226 3.84556C28.6207 3.86728 28.6298 3.88776 28.6263 3.90916C28.4691 4.84912 28.417 5.80012 28.4713 6.7344C28.4725 6.75612 28.4621 6.77596 28.4616 6.79736C28.4948 7.31692 28.5645 7.86108 28.6765 8.42252C30.238 7.10188 32.2227 6.35716 34.3297 6.35716C39.1105 6.35716 42.9999 10.1506 42.9999 14.8132C42.9999 18.6152 40.3838 21.8885 36.696 22.911ZM15.7757 38.2874H27.2242C34.1239 31.9096 35.1456 25.9947 34.9329 22.4304C34.9262 22.3958 34.9063 22.3656 34.904 22.33C34.8028 20.7366 34.4576 19.6169 34.3017 19.1786C33.7639 18.7922 33.2637 18.3917 32.7817 17.9845C32.7453 17.9536 32.7009 17.9234 32.6648 17.8926H10.3351C10.2994 17.9234 10.2553 17.953 10.2191 17.9839C9.73688 18.3914 9.23636 18.7919 8.69834 19.1786C8.54277 19.6153 8.19761 20.7357 8.09587 22.33C8.09363 22.3656 8.07368 22.3958 8.06706 22.4302C7.85429 25.9941 8.87559 31.9093 15.7757 38.2874ZM8.67026 8.06952C4.85745 8.06952 1.75573 11.095 1.75573 14.8132C1.75573 17.7279 3.67315 20.2747 6.43418 21.1917C6.64152 19.6619 7.00681 18.6776 7.12467 18.3929C7.14028 18.3542 7.14983 18.3309 7.15585 18.317C7.15739 18.3136 7.16247 18.3006 7.16376 18.2978C7.19515 18.2266 7.26051 18.18 7.30974 18.1206C7.35885 18.0607 7.3914 17.9883 7.45573 17.943C7.82467 17.6832 8.17679 17.4177 8.51753 17.1482C8.72466 16.9838 8.91562 16.8178 9.10985 16.6525C9.22823 16.5518 9.35061 16.4526 9.4652 16.3505C9.93184 15.9358 10.3645 15.5085 10.7688 15.0736C10.8409 14.9959 10.9088 14.9168 10.9789 14.8384C11.3147 14.4637 11.625 14.0833 11.9111 13.6982C11.9805 13.6047 12.0577 13.513 12.1245 13.4186C12.1629 13.3644 12.1955 13.3106 12.2329 13.2564C12.423 12.9796 12.6052 12.7006 12.7722 12.4169C12.7942 12.3798 12.814 12.3426 12.8355 12.3051C13.0145 11.9946 13.182 11.6807 13.3332 11.3624C13.3384 11.3513 13.3435 11.3406 13.3487 11.3296C13.5107 10.986 13.6572 10.6381 13.7867 10.2854C12.4744 8.87188 10.6346 8.06952 8.67026 8.06952ZM15.6368 1.7122C15.7408 2.05132 15.8477 2.4594 15.9446 2.9154H27.0553C27.1521 2.4594 27.259 2.05132 27.3631 1.7122H15.6368ZM16.2375 4.62776C16.2798 5.06104 16.3021 5.49404 16.305 5.92668H26.695C26.6978 5.49464 26.7202 5.06104 26.7624 4.62776H16.2375ZM27.3865 10.3607C27.3686 10.3059 27.382 10.2495 27.3757 10.1932C27.1038 9.31144 26.9276 8.454 26.8331 7.6394H16.1667C16.0723 8.45244 15.8963 9.30892 15.6251 10.189C15.619 10.2467 15.6323 10.3043 15.6139 10.3607C15.2983 11.3299 14.8653 12.2639 14.3418 13.1686H28.6581C28.1346 12.2636 27.7018 11.3299 27.3865 10.3607ZM13.2128 14.8812C13.1921 14.9083 13.1678 14.9348 13.1451 14.9616C12.8261 15.3753 12.4875 15.7825 12.1213 16.1802H30.8787C30.5123 15.7825 30.1737 15.3753 29.8546 14.9616C29.832 14.9348 29.8077 14.9083 29.787 14.8812H13.2128ZM34.3297 8.06952C32.3653 8.06952 30.5254 8.87188 29.2131 10.2854C29.3431 10.639 29.4899 10.9879 29.6524 11.3324C29.6568 11.3412 29.6609 11.3504 29.6653 11.3595C29.8176 11.6804 29.9865 11.9968 30.1671 12.3098C30.1872 12.3448 30.2056 12.3794 30.2262 12.4141C30.3955 12.7019 30.58 12.985 30.773 13.2656C30.8076 13.3156 30.8379 13.3657 30.8734 13.4158C30.9416 13.5124 31.0205 13.6056 31.0915 13.7014C31.377 14.0855 31.6868 14.4653 32.022 14.839C32.0931 14.9187 32.1619 14.999 32.2352 15.078C32.6395 15.5126 33.0724 15.9396 33.5394 16.3546C33.6606 16.4623 33.7896 16.5675 33.915 16.6739C34.1028 16.8333 34.2866 16.9929 34.4863 17.1516C34.8259 17.4199 35.1765 17.6844 35.5442 17.9432C35.6721 18.0336 35.7734 18.1558 35.8363 18.2978C35.8398 18.306 35.8565 18.3457 35.8783 18.4002C35.9997 18.6952 36.3603 19.6758 36.5659 21.192C39.3265 20.275 41.2441 17.7282 41.2441 14.8132C41.2441 11.095 38.1423 8.06952 34.3297 8.06952ZM11.6223 20.6611C12.107 20.6611 12.5001 21.0446 12.5001 21.5173V23.3635C12.5001 23.8361 12.107 24.2197 11.6223 24.2197C11.1376 24.2197 10.7444 23.8361 10.7444 23.3635V21.5173C10.7444 21.0446 11.1376 20.6611 11.6223 20.6611ZM15.5733 20.6611C16.058 20.6611 16.4512 21.0446 16.4512 21.5173V23.3635C16.4512 23.8361 16.058 24.2197 15.5733 24.2197C15.0887 24.2197 14.6955 23.8361 14.6955 23.3635V21.5173C14.6955 21.0446 15.0887 20.6611 15.5733 20.6611ZM19.5245 20.6611C20.0091 20.6611 20.4023 21.0446 20.4023 21.5173V23.3635C20.4023 23.8361 20.0091 24.2197 19.5245 24.2197C19.0398 24.2197 18.6465 23.8361 18.6465 23.3635V21.5173C18.6465 21.0446 19.0398 20.6611 19.5245 20.6611ZM23.4755 20.6611C23.9602 20.6611 24.3533 21.0446 24.3533 21.5173V23.3635C24.3533 23.8361 23.9602 24.2197 23.4755 24.2197C22.9908 24.2197 22.5977 23.8361 22.5977 23.3635V21.5173C22.5977 21.0446 22.9908 20.6611 23.4755 20.6611ZM27.4271 20.6611C27.9118 20.6611 28.305 21.0446 28.305 21.5173V23.3635C28.305 23.8361 27.9118 24.2197 27.4271 24.2197C26.9425 24.2197 26.5493 23.8361 26.5493 23.3635V21.5173C26.5493 21.0446 26.9425 20.6611 27.4271 20.6611ZM31.3782 20.6611C31.8629 20.6611 32.2561 21.0446 32.2561 21.5173V23.3635C32.2561 23.8361 31.8629 24.2197 31.3782 24.2197C30.8936 24.2197 30.5002 23.8361 30.5002 23.3635V21.5173C30.5002 21.0446 30.8936 20.6611 31.3782 20.6611Z" fill="#FE0000"/>
</svg>
