<svg width="44" height="38" viewBox="0 0 44 38" fill="none" xmlns="http://www.w3.org/2000/svg">
<path fill-rule="evenodd" clip-rule="evenodd" d="M2.99992 -3.8e-05H40.9999C42.6543 -3.8e-05 43.9999 1.34516 43.9999 2.99961V28.9995C43.9999 30.654 42.6543 31.9998 40.9999 31.9998H38.414L39.0858 32.6715C39.6669 33.2525 40 34.0561 40 34.8786C40 36.5991 38.5996 37.9995 36.8789 37.9995C36.0565 37.9995 35.2528 37.6666 34.6718 37.0856L21.8926 24.3061C20.7343 23.1482 19.8389 21.7898 19.2313 20.2701L18.0713 17.3706C17.9228 16.9997 18.0097 16.5758 18.293 16.2927C18.5762 16.0093 19.0009 15.9243 19.371 16.071L22.2705 17.2311C23.7899 17.8385 25.1483 18.7341 26.3065 19.8923L29.707 23.2924C30.0976 23.6832 30.0976 24.3162 29.707 24.707C29.3163 25.0974 28.6835 25.0974 28.2929 24.707L24.8926 21.3061C23.9267 20.3403 22.7948 19.5944 21.5283 19.0887L20.7959 18.7955L21.0889 19.5279C21.5946 20.7944 22.3407 21.9265 23.3065 22.8922L36.0858 35.6715C36.2948 35.8806 36.5839 35.9996 36.8789 35.9996C37.4971 35.9996 37.9999 35.4967 37.9999 34.8786C37.9999 34.5835 37.8808 34.2944 37.6718 34.0854L31.2958 27.7098C31.2938 27.7075 31.2919 27.7056 31.2899 27.7038C30.9004 27.313 30.9004 26.6804 31.291 26.2905C31.5019 26.0796 31.7831 25.9841 32.0605 25.9996H37.9999V5.99955H13.9999V25.9996H20.9999C21.5527 25.9996 22 26.4471 22 26.9997C22 27.5523 21.5527 27.9995 20.9999 27.9995H13C12.4472 27.9995 11.9999 27.5523 11.9999 26.9997V4.99977C11.9999 4.44714 12.4472 3.99969 13 3.99969H39C39.5527 3.99969 40 4.44714 40 4.99977V26.9997C40 27.5523 39.5527 27.9995 39 27.9995H34.4141L36.414 29.9996H40.9999C41.5518 29.9996 42 29.5512 42 28.9995V2.99961C42 2.44792 41.5518 1.99983 40.9999 1.99983H2.99992C2.44816 1.99983 1.99993 2.44792 1.99993 2.99961V28.9995C1.99993 29.5512 2.44816 29.9996 2.99992 29.9996H25C25.5526 29.9996 25.9999 30.4468 25.9999 30.9998C25.9999 31.5524 25.5526 31.9998 25 31.9998H2.99992C1.34565 31.9998 -8.8e-05 30.654 -8.8e-05 28.9995V2.99961C-8.8e-05 1.34516 1.34565 -3.8e-05 2.99992 -3.8e-05ZM7 12.9996C8.65423 12.9996 9.99997 14.3452 9.99997 15.9996C9.99997 17.654 8.65423 18.9995 7 18.9995C5.3456 18.9995 4 17.654 4 15.9996C4 14.3452 5.3456 12.9996 7 12.9996ZM5.99993 15.9996C5.99993 16.5516 6.44816 16.9997 7 16.9997C7.55172 16.9997 7.99995 16.5516 7.99995 15.9996C7.99995 15.4479 7.55172 14.9998 7 14.9998C6.44816 14.9998 5.99993 15.4479 5.99993 15.9996ZM5.99993 5.99955H7.99995C8.55263 5.99955 8.99989 5.5521 8.99989 4.99977C8.99989 4.44714 8.55263 3.99969 7.99995 3.99969H5.99993C5.44724 3.99969 4.99994 4.44714 4.99994 4.99977C4.99994 5.5521 5.44724 5.99955 5.99993 5.99955ZM7.99995 9.99997H5.99993C5.44724 9.99997 4.99994 9.55248 4.99994 8.99954C4.99994 8.44691 5.44724 7.99946 5.99993 7.99946H7.99995C8.55263 7.99946 8.99989 8.44691 8.99989 8.99954C8.99989 9.55248 8.55263 9.99997 7.99995 9.99997ZM7.99995 21.9998H5.99993C5.44724 21.9998 4.99994 22.4473 4.99994 22.9996C4.99994 23.5522 5.44724 23.9997 5.99993 23.9997H7.99995C8.55263 23.9997 8.99989 23.5522 8.99989 22.9996C8.99989 22.4473 8.55263 21.9998 7.99995 21.9998ZM5.99993 25.9996H7.99995C8.55263 25.9996 8.99989 26.4471 8.99989 26.9997C8.99989 27.5523 8.55263 27.9995 7.99995 27.9995H5.99993C5.44724 27.9995 4.99994 27.5523 4.99994 26.9997C4.99994 26.4471 5.44724 25.9996 5.99993 25.9996Z" fill="#102D6A"/>
</svg>
