<svg width="12" height="12" viewBox="0 0 12 12" fill="none" xmlns="http://www.w3.org/2000/svg">
<path d="M10.7765 2.00009C10.7311 1.99541 10.6853 1.99541 10.6399 2.00009H1.30655C1.24673 2.00102 1.18731 2.00998 1.12988 2.02676L5.94655 6.82343L10.7765 2.00009Z" fill="white"/>
<path d="M11.2702 2.46338L6.41689 7.29671C6.29198 7.42088 6.12301 7.49057 5.94689 7.49057C5.77076 7.49057 5.6018 7.42088 5.47689 7.29671L0.666888 2.50005C0.652101 2.55439 0.644261 2.61039 0.643555 2.66671V9.33338C0.643555 9.51019 0.713793 9.67976 0.838817 9.80478C0.963841 9.92981 1.13341 10 1.31022 10H10.6436C10.8204 10 10.9899 9.92981 11.115 9.80478C11.24 9.67976 11.3102 9.51019 11.3102 9.33338V2.66671C11.3076 2.59726 11.2941 2.52866 11.2702 2.46338ZM1.76689 9.33338H1.30355V8.85671L3.72689 6.45338L4.19689 6.92338L1.76689 9.33338ZM10.6369 9.33338H10.1702L7.74022 6.92338L8.21022 6.45338L10.6336 8.85671L10.6369 9.33338Z" fill="white"/>
</svg>
