<svg width="810" height="390" viewBox="0 0 810 390" fill="none" xmlns="http://www.w3.org/2000/svg">
  <path d="M8.67292 47.2811L24.9743 45.6428L48.7359 24.6021M36.2067 17.0948L65.1215 34.4317L137.535 0M52.7608 38.9333L73.8111 49.1474L94.592 38.9333L93.1774 28.9614M110.304 19.7018L63.6733 44.2328M83.831 44.2326L77.4654 35.9417M123.22 9.8863L138.511 30.1151M17.413 55.0736L3.08196 74.7895M3.08196 74.7895L-27.2305 84.0492M3.08196 74.7895L13.5734 91.7135M96.697 51.2985C96.697 51.2985 133.88 61.5268 145.382 64.9315C156.884 68.3363 180.595 79.3339 180.595 79.3339C180.595 79.3339 209.443 95.1465 223.134 96.0867C236.825 97.0412 259.256 96.0725 272.493 98.9786C285.712 101.899 310.299 108.78 310.299 108.78M310.299 108.78L367.607 122.769L452.044 143.283C452.044 143.283 534.174 154.437 542.813 153.952C551.435 153.468 560.647 150.591 571.576 151.046C582.505 151.516 619.369 153.782 628.833 157.03C638.297 160.278 671.658 174.865 680.853 175.349C690.047 175.834 731.862 169.993 731.862 169.993C731.862 169.993 752.171 167.557 759.648 169.993C767.125 172.429 817.629 175.378 817.629 175.378M310.299 108.78L221.399 202.744L105.808 288.602L28.595 347.935M52.7608 83.4653C52.7608 83.4653 69.0621 80.1603 77.4654 77.7101C85.8687 75.2598 86.3908 75.4308 96.697 74.7755C107.003 74.1344 116.35 72.7954 127.481 59.8176M80.6483 59.0053L73.6764 78.7498M99.5262 52.0822L83.8311 76.0291M105.218 53.6492L92.9754 75.0176M115.659 56.5409L104.444 73.9775M131.927 69.5612L103.517 117.783M155.503 68.5216L122.025 130.704M122.025 86.3857L141.964 93.6652M112.678 124.151L131.927 90.0324M113.302 101.187L133.308 109.734M165.001 72.4107L128.963 135.59M119.33 90.9299L111.685 88.6363L92.9754 110.475M134.941 31.9671L138.528 62.9513C138.528 62.9513 163.94 44.0331 202.909 41.1128C241.877 38.1924 260.553 41.4689 279.583 37.1097M137.77 56.5409L157.053 47.4522M192.653 59.0055L177.311 52.0822M182.414 44.2327L171.737 60.6152M127.481 77.1116L123.22 76.0289L94.592 96.913M99.0884 84.0492L65.8962 92.1265M246.811 3.56131L151.731 151.73M282.075 3.56131L173.927 167.671L103.568 232.175M260.738 35.9417L239.132 39.7168L163.469 160.149M202.622 72.4107L215.303 77.6531M231.268 14.7158L260.738 28.9614M258.212 3.56131L273.082 17.2086M284.045 8.54736L304.523 21.8385M312.943 5.2281L270.135 98.5227M322.205 13.5334L314.307 26.8246M328.807 32.9215L309.019 24.6021M251.661 96.9128L250.92 86.3853L254.288 78.7497M292.785 49.1473L322.205 60.615L364.306 79.7753M274.918 88.095L312.522 99.6055M318.905 59.8315L292.179 93.8501M288.861 57.7089L312.084 68.5214M316.328 84.049L305.55 83.2513M355.599 42.1955L340.376 68.8776M352.804 5.2281L451.067 145.548L563.712 68.379M563.712 68.379L511.726 3.56131M563.712 68.379L586.193 89.32L624.774 119.563M396.926 85.1602L374.41 79.7754M413.109 80.6302L486.971 96.0867L501.285 96.913L642.221 122.769L731.34 145.548L817.596 166.916M445.661 71.3707L440.592 86.3856M463.057 66.3417L454.671 89.3199M478.853 94.3914L507.297 107.44L550.391 117.056L578.464 120.618L635.131 139.365L676.104 215.892L693.533 258.088M693.533 258.088L681.846 339.245M693.533 258.088L645.303 270.724M693.533 258.088L705.17 196.931L717.026 116.586L731.323 48.8337M554.601 98.5229L528.532 93.0383L514.757 70.0459L525.265 45.6431M593.906 3.56131L561.068 74.0772L541.415 153.967M541.415 153.967L607.934 189.467M541.415 153.967L666.875 41.1128M541.415 153.967L480.436 176.233M541.415 153.967L531.479 172.899M680.482 3.56131L666.875 41.1128M666.875 41.1128L794.188 58.4926L767.412 85.2174L757.796 94.3916L730.868 141.744M480.436 176.233L378.25 158.924L300.178 150.249M480.436 176.233L496.687 149.123M480.436 176.233L550.829 189.467M301.761 143.738L285.51 133.823L257.892 122.925L264.342 109.492M351.474 118.837L333.64 158.254M363.093 121.672L340.376 166.916M299.808 151.73L344.468 181.404M344.468 181.404L425.049 136.729M344.468 181.404L395.107 216.149M344.468 181.404L330.996 190.364M425.049 136.729L428.518 113.338M425.049 136.729L422.607 166.446L416.662 178.099M394.416 213.784L416.662 178.099M416.662 178.099L425.049 202.63M415.955 219.383L400.226 204.467M377.256 90.0324L396.926 95.4885L389.246 117.783L426.918 124.151M394.416 129.293L396.925 119.079M391.015 93.8501L381.449 121.672L395.679 123.766M500.712 111.543L482.12 147.271M485.926 121.672L473.498 146.146M550.829 189.467L620.682 208.884M550.829 189.467L544.514 218.043M620.682 208.884L611.605 226.705M620.682 208.884L588.13 224.411M620.682 208.884L634.458 243.244L632.959 258.088L620.682 281.408L596.315 283.445L592.34 289.044L574.675 282.932V266.65L571.542 258.088L543.318 252.888M611.605 226.705L612.801 237.133L596.55 254.185L598.369 276.835M611.605 226.705L590.841 225.679L573.395 219.383L544.514 218.043M598.369 276.835L591.751 280.397L574.675 276.835M598.369 276.835L614.182 275.809V252.888L647.442 239.455M543.318 252.888L544.514 218.043M543.318 252.888L565.867 266.393L557.144 275.81L546.787 272.505M543.318 252.888L538.03 254.185M544.514 218.043L514.757 208.884L521.341 191.476M596.314 202.117L588.13 215.764L546.787 207.801M561.522 192.444L563.173 210.949M582.623 198.313L577.874 213.784M547.68 203.755L520.297 194.253M532.187 213.784L534.679 199.239M577.874 239.255L544.009 232.802L512.921 219.383L498.186 247.561L517.435 259.527M514.757 251.378L538.03 254.185M538.03 254.185L529.172 264.256L538.03 274.285M510.227 210.949L505.108 192.444L493.42 193.484L490.322 198.997L464.792 208.941L462.687 222.374L472.623 230.266L495.189 235.409M506.303 217.545L492.477 214.753L480.436 216.149L463.882 214.753M463.158 219.383L447.648 224.411L441.94 239.455L430.505 255.453L432.004 268.943L450.663 284.471L408.09 336.71L431.078 325.37M420.872 242.603L432.341 252.888L462.687 262.832M462.687 262.832L478.853 275.809M462.687 262.832L454.351 286.252M478.853 275.809L558.356 305.839M478.853 275.809L468.227 292.391M558.356 305.839L565.867 308.646L582.623 344.772M558.356 305.839L556.554 312.905H526.394L524.962 324.273M582.623 344.772L583.869 369.318L604.92 421.442M582.623 344.772L543.318 340.698M582.623 344.772L660.627 325.37M408.09 265.738L475.031 295.412L506.303 311.182L543.318 337.137M543.318 337.137V379.219L556.723 410.16M543.318 337.137L543.318 312.905M408.09 286.252L457.146 311.694M430.808 275.81L413.362 301.01L428.518 309.914M441.636 349.103L426.228 314.458M441.636 295.54L500.594 325.94L498.186 332.821L524.962 341.895M532.187 329.33L507.381 371.326M495.946 305.953L475.704 361.141M469.305 336.71L459.74 355.599M487.762 328.262L470.518 322.478M498.186 341.895L487.762 366.027M509.688 336.71L495.946 367.167M457.146 333.547L449.501 351.938M486.465 278.687L498.186 295.54M508.762 287.107L500.055 308.033M508.762 312.905L514.757 301.01L526.394 304.828M526.393 322.478L576.594 331.781M660.627 325.37L689.02 343.946M660.627 325.37L640.47 317.407M652.847 351.525L626.947 318.575V302.278L644.393 284.1M644.393 284.1L647.442 239.455M644.393 284.1L689.357 287.106M644.393 284.1L640.47 317.407M647.442 239.455L654.312 245.78L695.52 244.768M624.774 334.288L634.458 355.87M634.458 355.87L678.697 380.016L741.579 403.821L818.825 425.46M634.458 355.87L643.636 383.008L665.376 360.101L675.969 361.141L678.478 346.012M623.478 358.619L611.605 319.871M466.324 265.738L475.704 245.78M437.41 245.78L470.518 256.82L483.299 252.888L495.946 258.088L510.227 274.541M560.158 287.107L558.356 295.54M596.314 301.01L526.394 273.274L514.757 271.735L507.381 276.835L592.946 308.033M640.47 317.407L600.171 320.854L574.978 328.262L583.869 304.728M685.063 316.937L641.615 309.914M645.303 267.917L669.418 255.766L675.969 267.917L672.062 286.252M378.048 292.862L369.594 322.478M686.814 304.728L729.942 318.718M705.17 341.012L716.807 314.458M730.026 324.273L714.415 319.871M729.942 328.262L710.98 329.33M730.026 292.862L691.563 271.736M691.563 271.736L730.7 247.817M691.563 271.736L729.942 265.738M730.7 247.817L768.624 222.731M730.7 247.817L703.082 223.657M768.624 222.731L766.519 171.261M768.624 222.731L744.34 276.835L729.605 296.551M766.519 171.261L731.626 194.253L703.334 206.519L672.382 208.941M766.519 171.261L770.123 147.271L789.085 103.794M789.085 103.794L794.188 61.5696L789.675 5.2281M789.085 103.794L818.556 107.597M789.085 103.794L723.913 83.9637L693.533 73.7211M731.323 191.475L666.875 129.065L648.772 164.836M700.926 91.4286L685.602 123.766M671.439 47.1673L700.371 57.5808L728.09 64.1481L777.263 75.3879L792.099 78.878L817.596 82.1688M751.329 69.4615L749.376 77.8379L790.584 91.4283M800.84 162.756L810.253 220.18M767.26 189.467L805.538 188.356M767.563 206.519L808.435 209.097M688.313 175.107L690.047 185.976H677.72M623.242 177.087L657.175 180.535M660.678 187.088L648.772 185.977M637.135 200.835L660.678 196.006M625.6 167.7L637.135 169.01M624.774 135.932L617.533 154.822L615.344 167.7L604.819 187.8M561.522 151.459L558.053 162.842L554.601 181.404L498.186 169.751L506.303 150.32M577.874 151.459L575.921 166.09M568.258 167.7L587.776 169.01V178.099M590.403 152.186L588.888 161.873M596.315 114.35L584.964 151.459M612.481 117.313L600.306 152.97M782.72 118.367L730.531 105.517M784.471 114.35L737.672 101.315M658.404 94.3914L669.519 105.517L663.052 120.66L672.382 123.766L708.168 39.1611L675.666 30.7561M659.954 91.4286L682.318 100.247M576.409 41.1129L586.193 56.9826M586.193 56.9826L686.949 89.3201M586.193 56.9826L574.978 78.878M604.819 103.922L607.934 63.9628L612.481 41.1128L614.519 30.7562L627.469 3.56131M581.647 29.873L607.934 41.1128M588.214 15.784L616.135 26.511M611.269 47.1673L628.328 53.7345M629.944 120.518L649.378 77.2685L663.659 44.005M670.513 64.6611L656.114 61.5698M632.437 72.0829L620.682 116.358M607.934 16.838L635.232 26.5108M548.033 48.8337L538.384 70.3019M520.836 47.1671L528.6 24.6021L583.684 25.4995M525.097 87.3258L502.581 85.1604L498.186 96.5142M491.416 100.146L484.68 113.338L490.069 118.837M507.364 85.6161L509.705 76.8408M519.085 77.2684L529.863 78.7927M520.836 59.5609L532.557 61.5695M430.118 5.2281L414.692 32.9216L407.249 72.4105L402.954 76.8409M482.12 3.56131L476.226 21.8385L510.783 34.4316M427.507 9.88637L465.095 23.7901L468.935 3.56131M362.453 18.9897L375.336 11.7386M386.552 14.7158L379.428 28.9614M395.679 9.8863L381.449 38.0214L356.088 76.0287L347.668 98.7363L355.599 109.734L354.488 119.563M402.954 16.4819L394.416 28.9611M411.56 17.2088L402.095 34.4317M331.905 20.1859L347.668 28.7618M359.557 30.8988L373.147 39.3749M817.596 239.455L795.99 240.751M795.99 240.751L764.431 232.061M795.99 240.751L755.758 251.378M805.538 220.18L803.281 271.735L795.99 289.044L786.408 304.728M729.942 299.742L753.047 300.754M753.047 300.754L792.891 305.839L817.596 304.728M753.047 300.754V333.547M740.215 282.348H778.021M778.021 282.348L817.596 295.483M778.021 282.348L775.327 270.724M745.486 274.285L760.052 274.542L817.596 260.168M817.596 289.044L798.061 284.101L791.022 266.806L788.007 255.766M788.007 255.766L817.596 252.889M788.007 255.766L749.325 265.738M767.26 282.348L764.431 301.01M634.458 198.997L650.035 230.779L680.482 224.611M664.922 211.747L642.861 216.149M663.339 228.087L657.175 213.3L648.907 205.522M781.541 304.386L784.521 331.239M817.596 313.432L783.831 325.028M330.996 190.364L310.737 224.639M330.996 190.364L295.918 167.671L212.103 135.59M310.737 224.639L331.922 249.669L246.592 319.999L153.432 346.653L108.738 362.152M310.737 224.639L324.782 225.038M108.738 362.152L84.3363 376.384M108.738 362.152L128.896 389.732M84.3363 376.384L101.21 395.815M84.3363 376.384L46.311 334.316L-4.90031 303.104M-31.7606 416.343L0.454858 383.036M0.454858 383.036L9.76753 371.184L28.595 347.935M0.454858 383.036L-5.37189 377.167L-40.4165 363.606M0.454858 383.036L-40.4165 411.913M28.595 347.935L-28.2242 354.161M187.567 375.928L172.478 336.71L126.386 275.809L111.028 264.954L138.511 238.073M138.511 238.073L182.886 174.181L208.971 136.729L232.093 96.514M138.511 238.073L93.5143 203.698M138.511 238.073L199.271 286.636M225.525 140.718L192.805 181.404M239.722 146.16L202.235 188.356L163.519 225.793M257.892 153.112L214.512 197.516M232.093 211.092L266.834 179.88L290.882 188.356M248.344 225.793L255.939 214.753L238.442 205.365M318.248 211.932L289.131 195.479M327.965 195.479L294.604 173.07M312.522 219.383L286.942 204.467M280.441 231.15L303.698 245.78M303.698 245.78V251.92M303.698 245.78L305.55 239.184L312.943 241.492L321.094 236.862M303.698 251.92L290.882 264.256L282.075 264.954M303.698 251.92L315.722 260.168L321.33 270.738L344.687 292.862L345.849 318.005M233.962 129.407L259.357 140.718M155.823 184.267L168.504 194.88M115.356 176.233L209.156 243.657M209.156 243.657L269.748 300.91L303.698 345.129M209.156 243.657L238.442 216.406M279.835 352.237L263.365 306.181M272.897 354.16L252.722 314.956M257.892 310.683L214.512 271.037M214.512 271.037L171.552 239.768L148.666 223.457L104.393 190.364M214.512 271.037L224.616 258.273L255.939 231.762M214.512 271.037L199.271 286.636M199.271 286.636L233.962 323.618M199.271 286.636L184.064 303.232L150.317 323.618M255.939 358.705L214.411 329.217L138.511 264.257L123.372 252.889M127.767 248.586L83.3427 215.579M182.246 273.032L147.976 304.358M144.473 259.883L176.284 278.474M197.756 314.956L183.963 326.31L189.655 336.296M195.718 334.558L209.156 370.628M220.103 333.248L231.436 365.044L259.037 408.864L248.815 360.571M220.103 308.831L241.035 295.283M262.81 251.92L235.141 268.217M248.967 268.217L277.78 251.92M246.811 279.243L281.266 260.681M260.738 292.391L285.864 273.032M232.093 341.767L262.81 334.558M244.167 350.357L241.035 339.659M316.917 277.69L293.863 295.283M312.522 291.281L296.642 303.104L316.917 301.01L335.964 284.97M301.761 318.005L316.917 305.797L327.965 314.957L337.951 305.797L345.478 309.914M139.269 351.568L96.697 295.597L50.2179 248.059L52.7608 275.81L68.9274 316.937M61.7029 322.478L86.5929 347.223L104.444 336.297M123.305 357.11L80.9851 307.677L58.7559 279.243L26.9615 257.675L-9.36301 235.409M77.4654 352.593L68.2033 357.109M-31.7606 279.243L-2.89636 309.914L17.413 334.559L70.5441 388.265M13.0177 367.167L-40.4165 333.248M-40.4165 322.478L0.185408 298.973L56.7687 243.657M-16.6717 295.283L19.3833 265.738M-24.9403 286.48L-2.45848 269.171M8.3361 236.221L-40.4165 273.031M1.36422 235.537L-9.36303 225.793L-40.4165 216.406M-40.4165 224.412L10.5253 170.15L41.8483 146.16M82.5007 103.295L53.9059 132.712L77.4654 155.006L116.198 126.615M130.984 155.007L90.1293 123.766M66.5866 119.663L82.5007 136.729L116.198 138.539M-40.4165 66.1993L-8.8073 49.1473M85.0436 213.627L41.8483 191.134M41.8483 191.134L-4.49615 235.409M41.8483 191.134L63.6901 208.285L56.7687 220.01M41.8483 191.134L-13.7078 153.112M-18.642 201.205L29.0328 238.8M26.1363 304.358L35.129 312.535L45.9573 304.358L36.0384 296.252M32.3672 302.05L40.2821 308.646M36.3246 311.637L55.7583 327.065M44.0543 305.797L60.0021 322.478M0.589571 314.144L35.129 341.895M126.201 312.535L115.356 320.128M139.269 328.59L127.649 336.296M133.459 354.161L147.976 385.344M146.241 349.146L163.738 381.64M141.122 370.628H147.976L154.981 383.706M71.4703 362.153L16.7057 399.433M58.6212 360.671L65.0373 366.54M-35.6002 400.16L-16.0486 373.036M123.305 405.573L148.06 397.282M146.241 385.757L154.981 413.536L187.938 405.573M192.282 416.342L167.089 423.565M32.3166 415.217L13.0177 423.565M246.828 428.651L203.431 372.053M282.125 371.44L252.756 379.219M303.698 408.864L268.619 415.217M302.721 416.343L336.149 415.217M118.808 417.967L131.657 413.536M730.868 336.966L732.199 355.599L736.105 414.647M736.105 414.647L730.936 426.115M736.105 414.647L670.866 406.257M818.825 381.526L754.041 375.6M781.692 415.388L789.607 378.863M732.956 367.167H676.087L670.866 406.257M670.866 406.257L662.261 434.064L619.15 422.582L554.146 417.397L475.704 397.638L426.935 372.053L328.739 331.78M554.146 428.993L556.723 417.397M631.797 390.9L639.897 388.82L655.104 432.155M316.917 360.571L346.758 352.237M346.758 352.237L355.498 342.75M346.758 352.237L355.498 357.565L392.227 373.72M376.616 325.028L360.433 344.773M324.782 381.085L338.136 372.053L366.394 347.223L405.261 335.656M336.199 373.349L389.078 388.82M342.06 430.175L386.249 423.038M332.006 404.02L373.821 392.353L456.203 417.397M412.25 434.022L422.085 401.171M412.25 404.035L417.167 393.892M469.305 402.938L502.868 369.973M459.74 422.141L466.206 405.929M452.246 352.237L439.902 378.862L494.128 378.563L507.381 404.875L512.904 398.963V386.085L496.67 376.07M555.443 377.338L565.413 400.188M674.218 380.016L554.146 410.815M562.853 408.593L571.997 383.008M571.997 383.008L568.376 373.72M571.997 383.008L586.193 378.563M567.551 395.416L592.626 391.014M517.502 408.166L521.055 398.963L554.887 405.929M548.421 391.014L521.055 385.187V375.116M665.376 421.443L691.563 427.796M386.249 410.815L417.167 417.397M369.594 425.46L366.596 408.165M376.616 412.041L357.452 413.537M446.773 424.619L427.406 423.038M324.782 225.038L384.834 277.69L398.963 265.738L340.376 214.753C340.376 214.753 336.115 210.137 328.739 215.536C321.363 220.935 324.782 225.038 324.782 225.038ZM339.281 213.926L340.376 184.125M372.423 200.578L329.143 236.862M375.202 288.688L334.869 255.766L364.154 231.149C364.154 231.149 371.918 226.534 377.037 224.839C382.157 223.129 388.707 222.346 387.68 217.545C386.653 212.744 369.964 202.63 369.964 202.63M354.286 239.455L385.659 265.738L378.789 272.405M375.471 245.31L361.477 257.205M379.092 284.101L340.376 251.378M339.281 245.652L316.311 224.64L340.376 188.356L366.697 205.365L394.416 262.561L380.944 274.286M372.423 291.195L345.479 268.858M389.718 252.888L395.107 251.378L392.412 239.455M58.4022 96.0868L44.509 107.811L58.4022 119.663L72.666 107.084L58.4022 96.0868Z" stroke="#484848" stroke-miterlimit="10" stroke-linecap="round" stroke-linejoin="round" class="svg-elem-1"/>
</svg>
