<svg width="12" height="12" viewBox="0 0 12 12" fill="none" xmlns="http://www.w3.org/2000/svg">
<path d="M9.12329 7.9384C8.73123 7.55134 8.24179 7.55134 7.85224 7.9384C7.55508 8.23306 7.25792 8.52772 6.96575 8.82738C6.88584 8.90978 6.81842 8.92726 6.72103 8.87232C6.52875 8.76744 6.32398 8.68254 6.13919 8.56767C5.27768 8.02579 4.556 7.32909 3.91673 6.54499C3.5996 6.15544 3.31742 5.73842 3.12014 5.26896C3.08019 5.17407 3.08768 5.11164 3.16509 5.03423C3.46225 4.74706 3.75192 4.45239 4.04409 4.15773C4.45112 3.7482 4.45112 3.26875 4.04159 2.85672C3.80936 2.62199 3.57712 2.39226 3.34489 2.15753C3.10516 1.9178 2.86793 1.67558 2.62571 1.43835C2.23366 1.05629 1.74421 1.05629 1.35466 1.44085C1.055 1.73551 0.767829 2.03766 0.463177 2.32733C0.181 2.59452 0.0386624 2.92165 0.00869663 3.30371C-0.0387492 3.9255 0.113577 4.51233 0.328332 5.08417C0.767829 6.26781 1.43707 7.31911 2.24864 8.283C3.34489 9.58651 4.65339 10.6178 6.18414 11.362C6.87335 11.6966 7.58754 11.9538 8.36415 11.9962C8.89854 12.0262 9.36301 11.8914 9.73509 11.4743C9.9898 11.1897 10.277 10.93 10.5467 10.6578C10.9462 10.2532 10.9487 9.7638 10.5517 9.36426C10.0772 8.88731 9.60024 8.41285 9.12329 7.9384Z" fill="white"/>
<path d="M8.64633 5.94818L9.56778 5.79086C9.42294 4.94433 9.0234 4.17771 8.41659 3.56841C7.77483 2.92664 6.96325 2.52211 6.06927 2.39725L5.93942 3.32369C6.63113 3.42108 7.26041 3.73322 7.75735 4.23015C8.22681 4.69961 8.53396 5.29393 8.64633 5.94818Z" fill="white"/>
<path d="M10.0872 1.94277C9.0234 0.878992 7.67744 0.207262 6.19163 0L6.06178 0.926437C7.34532 1.10623 8.50899 1.68806 9.42794 2.60451C10.2994 3.47601 10.8713 4.57725 11.0786 5.78836L12 5.63104C11.7578 4.22765 11.096 2.95411 10.0872 1.94277Z" fill="white"/>
</svg>
